<svg xmlns="http://www.w3.org/2000/svg" xmlns:xlink="http://www.w3.org/1999/xlink" width="250" zoomAndPan="magnify" viewBox="0 0 187.5 60" height="80" preserveAspectRatio="xMidYMid meet" version="1.0"><defs><g/><clipPath id="3b7416fcd2"><path d="M 0 0.078125 L 187 0.078125 L 187 59.917969 L 0 59.917969 Z M 0 0.078125 " clip-rule="nonzero"/></clipPath></defs><g clip-path="url(#3b7416fcd2)"><path fill="#ffffff" d="M 0 0.078125 L 187 0.078125 L 187 59.921875 L 0 59.921875 Z M 0 0.078125 " fill-opacity="1" fill-rule="nonzero"/><path fill="#000000" d="M 0 0.078125 L 187 0.078125 L 187 59.921875 L 0 59.921875 Z M 0 0.078125 " fill-opacity="1" fill-rule="nonzero"/></g><g fill="#ffffff" fill-opacity="1"><g transform="translate(5.73817, 46.236298)"><g><path d="M 3.011719 -36.335938 C 2.75 -36.335938 2.542969 -36.179688 2.542969 -35.972656 L 2.542969 -35.867188 C 2.542969 -35.660156 2.59375 -35.402344 2.90625 -34.984375 L 4.777344 -32.546875 L 4.777344 -1.347656 C 4.777344 -0.519531 5.085938 0 5.917969 0 L 13.339844 0 C 13.601562 0 13.703125 -0.15625 13.703125 -0.363281 L 13.703125 -0.621094 C 13.703125 -0.984375 13.652344 -1.195312 13.339844 -1.660156 L 5.503906 -11.9375 L 5.503906 -31.558594 L 28.601562 -1.347656 C 29.328125 -0.46875 30.003906 0 30.675781 0 L 32.648438 0 C 33.480469 0 33.792969 -0.519531 33.792969 -1.347656 L 33.792969 -34.984375 C 33.792969 -35.816406 33.480469 -36.335938 32.648438 -36.335938 L 26.734375 -36.335938 C 26.472656 -36.335938 26.367188 -36.179688 26.367188 -35.972656 L 26.367188 -35.710938 C 26.367188 -35.347656 26.367188 -35.089844 26.734375 -34.675781 L 33.066406 -26.367188 L 33.066406 -13.445312 L 32.960938 -13.445312 L 15 -35.246094 C 14.328125 -36.023438 13.859375 -36.335938 13.082031 -36.335938 Z M 3.011719 -36.335938 "/></g></g></g><g fill="#ffffff" fill-opacity="1"><g transform="translate(44.192793, 46.236298)"><g><path d="M 9.601562 0 C 10.691406 0 11.054688 -0.570312 10.746094 -1.347656 L 6.902344 -9.914062 L 23.410156 -9.914062 L 27.25 -1.347656 C 27.613281 -0.570312 28.1875 0 29.121094 0 L 36.699219 0 C 37.527344 0 37.789062 -0.675781 37.527344 -1.347656 L 22.476562 -34.984375 C 22.164062 -35.710938 21.488281 -36.335938 20.605469 -36.335938 L 17.441406 -36.335938 C 16.714844 -36.335938 15.988281 -35.710938 15.675781 -34.984375 L 0.621094 -1.347656 C 0.363281 -0.675781 0.621094 0 1.453125 0 Z M 23.097656 -10.640625 L 6.59375 -10.640625 L 6.074219 -11.78125 L 14.328125 -30.3125 Z M 23.097656 -10.640625 "/></g></g></g><g fill="#ffffff" fill-opacity="1"><g transform="translate(82.336045, 46.236298)"><g><path d="M 35.453125 -34.984375 C 35.453125 -35.816406 35.140625 -36.335938 34.3125 -36.335938 L 27.71875 -36.335938 C 26.886719 -36.335938 26.578125 -35.816406 26.578125 -34.984375 L 26.578125 -19.257812 L 13.546875 -19.257812 L 13.546875 -34.984375 C 13.546875 -35.816406 13.238281 -36.335938 12.40625 -36.335938 L 5.8125 -36.335938 C 4.984375 -36.335938 4.671875 -35.816406 4.671875 -34.984375 L 4.671875 -1.347656 C 4.671875 -0.519531 4.984375 0 5.8125 0 L 12.40625 0 C 13.238281 0 13.546875 -0.519531 13.546875 -1.347656 L 13.546875 -18.167969 L 26.578125 -18.167969 L 26.578125 -1.347656 C 26.578125 -0.519531 26.886719 0 27.71875 0 L 34.3125 0 C 35.140625 0 35.453125 -0.519531 35.453125 -1.347656 Z M 35.453125 -34.984375 "/></g></g></g><g fill="#ffffff" fill-opacity="1"><g transform="translate(122.451327, 46.236298)"><g><path d="M 4.671875 -1.347656 C 4.671875 -0.519531 4.984375 0 5.8125 0 L 12.40625 0 C 13.238281 0 13.546875 -0.519531 13.546875 -1.347656 L 13.546875 -34.984375 C 13.546875 -35.816406 13.238281 -36.335938 12.40625 -36.335938 L 5.8125 -36.335938 C 4.984375 -36.335938 4.671875 -35.816406 4.671875 -34.984375 Z M 4.671875 -1.347656 "/></g></g></g><g fill="#ffffff" fill-opacity="1"><g transform="translate(140.666673, 46.236298)"><g><path d="M 4.671875 -1.347656 C 4.671875 -0.519531 4.984375 0 5.8125 0 L 19.828125 0 C 32.441406 0 39.292969 -5.605469 39.292969 -18.21875 C 39.292969 -30.832031 32.441406 -36.335938 19.828125 -36.335938 L 5.8125 -36.335938 C 4.984375 -36.335938 4.671875 -35.816406 4.671875 -34.984375 Z M 14.066406 -35.609375 L 18.167969 -35.609375 C 24.1875 -35.609375 29.429688 -26.785156 29.429688 -18.21875 C 29.429688 -9.65625 24.1875 -0.726562 18.167969 -0.726562 L 14.066406 -0.726562 Z M 14.066406 -35.609375 "/></g></g></g><g fill="#ff0000" fill-opacity="1"><g transform="translate(6.186891, 45.228455)"><g><path d="M 3.011719 -36.335938 C 2.75 -36.335938 2.542969 -36.179688 2.542969 -35.972656 L 2.542969 -35.867188 C 2.542969 -35.660156 2.59375 -35.402344 2.90625 -34.984375 L 4.777344 -32.546875 L 4.777344 -1.347656 C 4.777344 -0.519531 5.085938 0 5.917969 0 L 13.339844 0 C 13.601562 0 13.703125 -0.15625 13.703125 -0.363281 L 13.703125 -0.621094 C 13.703125 -0.984375 13.652344 -1.195312 13.339844 -1.660156 L 5.503906 -11.9375 L 5.503906 -31.558594 L 28.601562 -1.347656 C 29.328125 -0.46875 30.003906 0 30.675781 0 L 32.648438 0 C 33.480469 0 33.792969 -0.519531 33.792969 -1.347656 L 33.792969 -34.984375 C 33.792969 -35.816406 33.480469 -36.335938 32.648438 -36.335938 L 26.734375 -36.335938 C 26.472656 -36.335938 26.367188 -36.179688 26.367188 -35.972656 L 26.367188 -35.710938 C 26.367188 -35.347656 26.367188 -35.089844 26.734375 -34.675781 L 33.066406 -26.367188 L 33.066406 -13.445312 L 32.960938 -13.445312 L 15 -35.246094 C 14.328125 -36.023438 13.859375 -36.335938 13.082031 -36.335938 Z M 3.011719 -36.335938 "/></g></g></g><g fill="#ff0000" fill-opacity="1"><g transform="translate(44.641514, 45.228455)"><g><path d="M 9.601562 0 C 10.691406 0 11.054688 -0.570312 10.746094 -1.347656 L 6.902344 -9.914062 L 23.410156 -9.914062 L 27.25 -1.347656 C 27.613281 -0.570312 28.1875 0 29.121094 0 L 36.699219 0 C 37.527344 0 37.789062 -0.675781 37.527344 -1.347656 L 22.476562 -34.984375 C 22.164062 -35.710938 21.488281 -36.335938 20.605469 -36.335938 L 17.441406 -36.335938 C 16.714844 -36.335938 15.988281 -35.710938 15.675781 -34.984375 L 0.621094 -1.347656 C 0.363281 -0.675781 0.621094 0 1.453125 0 Z M 23.097656 -10.640625 L 6.59375 -10.640625 L 6.074219 -11.78125 L 14.328125 -30.3125 Z M 23.097656 -10.640625 "/></g></g></g><g fill="#ff0000" fill-opacity="1"><g transform="translate(82.784766, 45.228455)"><g><path d="M 35.453125 -34.984375 C 35.453125 -35.816406 35.140625 -36.335938 34.3125 -36.335938 L 27.71875 -36.335938 C 26.886719 -36.335938 26.578125 -35.816406 26.578125 -34.984375 L 26.578125 -19.257812 L 13.546875 -19.257812 L 13.546875 -34.984375 C 13.546875 -35.816406 13.238281 -36.335938 12.40625 -36.335938 L 5.8125 -36.335938 C 4.984375 -36.335938 4.671875 -35.816406 4.671875 -34.984375 L 4.671875 -1.347656 C 4.671875 -0.519531 4.984375 0 5.8125 0 L 12.40625 0 C 13.238281 0 13.546875 -0.519531 13.546875 -1.347656 L 13.546875 -18.167969 L 26.578125 -18.167969 L 26.578125 -1.347656 C 26.578125 -0.519531 26.886719 0 27.71875 0 L 34.3125 0 C 35.140625 0 35.453125 -0.519531 35.453125 -1.347656 Z M 35.453125 -34.984375 "/></g></g></g><g fill="#ff0000" fill-opacity="1"><g transform="translate(122.900048, 45.228455)"><g><path d="M 4.671875 -1.347656 C 4.671875 -0.519531 4.984375 0 5.8125 0 L 12.40625 0 C 13.238281 0 13.546875 -0.519531 13.546875 -1.347656 L 13.546875 -34.984375 C 13.546875 -35.816406 13.238281 -36.335938 12.40625 -36.335938 L 5.8125 -36.335938 C 4.984375 -36.335938 4.671875 -35.816406 4.671875 -34.984375 Z M 4.671875 -1.347656 "/></g></g></g><g fill="#ff0000" fill-opacity="1"><g transform="translate(141.115394, 45.228455)"><g><path d="M 4.671875 -1.347656 C 4.671875 -0.519531 4.984375 0 5.8125 0 L 19.828125 0 C 32.441406 0 39.292969 -5.605469 39.292969 -18.21875 C 39.292969 -30.832031 32.441406 -36.335938 19.828125 -36.335938 L 5.8125 -36.335938 C 4.984375 -36.335938 4.671875 -35.816406 4.671875 -34.984375 Z M 14.066406 -35.609375 L 18.167969 -35.609375 C 24.1875 -35.609375 29.429688 -26.785156 29.429688 -18.21875 C 29.429688 -9.65625 24.1875 -0.726562 18.167969 -0.726562 L 14.066406 -0.726562 Z M 14.066406 -35.609375 "/></g></g></g><g fill="#ffffff" fill-opacity="1"><g transform="translate(60.296026, 54.271303)"><g><path d="M 3.109375 0 L 2 0 L 2 -2.234375 L 0.03125 -5.6875 L 1.234375 -5.6875 L 2.53125 -3.453125 L 2.625 -3.453125 L 3.90625 -5.6875 L 5.078125 -5.6875 L 3.109375 -2.234375 Z M 3.109375 0 "/></g></g></g><g fill="#ffffff" fill-opacity="1"><g transform="translate(65.402823, 54.271303)"><g><path d="M 2.5 0.078125 C 2.070312 0.078125 1.695312 -0.00390625 1.375 -0.171875 C 1.0625 -0.347656 0.816406 -0.601562 0.640625 -0.9375 C 0.472656 -1.269531 0.390625 -1.671875 0.390625 -2.140625 C 0.390625 -2.617188 0.472656 -3.023438 0.640625 -3.359375 C 0.816406 -3.691406 1.0625 -3.941406 1.375 -4.109375 C 1.695312 -4.285156 2.070312 -4.375 2.5 -4.375 C 2.914062 -4.375 3.28125 -4.285156 3.59375 -4.109375 C 3.914062 -3.941406 4.164062 -3.691406 4.34375 -3.359375 C 4.519531 -3.023438 4.609375 -2.617188 4.609375 -2.140625 C 4.609375 -1.671875 4.519531 -1.269531 4.34375 -0.9375 C 4.164062 -0.601562 3.914062 -0.347656 3.59375 -0.171875 C 3.28125 -0.00390625 2.914062 0.078125 2.5 0.078125 Z M 2.5 -0.828125 C 3.164062 -0.828125 3.5 -1.265625 3.5 -2.140625 C 3.5 -2.597656 3.410156 -2.929688 3.234375 -3.140625 C 3.066406 -3.347656 2.820312 -3.453125 2.5 -3.453125 C 1.832031 -3.453125 1.5 -3.015625 1.5 -2.140625 C 1.5 -1.265625 1.832031 -0.828125 2.5 -0.828125 Z M 2.5 -0.828125 "/></g></g></g><g fill="#ffffff" fill-opacity="1"><g transform="translate(70.389038, 54.271303)"><g><path d="M 1.96875 0.078125 C 1.476562 0.078125 1.117188 -0.0507812 0.890625 -0.3125 C 0.660156 -0.570312 0.546875 -0.953125 0.546875 -1.453125 L 0.546875 -4.296875 L 1.625 -4.296875 L 1.625 -1.578125 C 1.625 -1.316406 1.679688 -1.125 1.796875 -1 C 1.910156 -0.882812 2.085938 -0.828125 2.328125 -0.828125 C 2.617188 -0.828125 2.847656 -0.925781 3.015625 -1.125 C 3.179688 -1.320312 3.265625 -1.628906 3.265625 -2.046875 L 3.265625 -4.296875 L 4.34375 -4.296875 L 4.34375 0 L 3.3125 0 L 3.3125 -0.625 L 3.234375 -0.65625 C 3.085938 -0.40625 2.914062 -0.21875 2.71875 -0.09375 C 2.519531 0.0195312 2.269531 0.078125 1.96875 0.078125 Z M 1.96875 0.078125 "/></g></g></g><g fill="#ffffff" fill-opacity="1"><g transform="translate(75.351915, 54.271303)"><g><path d="M 0.625 0 L 0.625 -4.296875 L 1.671875 -4.296875 L 1.671875 -3.65625 L 1.75 -3.640625 C 1.851562 -3.878906 1.988281 -4.050781 2.15625 -4.15625 C 2.320312 -4.269531 2.523438 -4.328125 2.765625 -4.328125 C 3.015625 -4.328125 3.203125 -4.285156 3.328125 -4.203125 L 3.140625 -3.28125 L 3.0625 -3.265625 C 2.988281 -3.285156 2.921875 -3.300781 2.859375 -3.3125 C 2.796875 -3.332031 2.71875 -3.34375 2.625 -3.34375 C 2.320312 -3.34375 2.09375 -3.234375 1.9375 -3.015625 C 1.78125 -2.804688 1.703125 -2.46875 1.703125 -2 L 1.703125 0 Z M 0.625 0 "/></g></g></g><g fill="#ffffff" fill-opacity="1"><g transform="translate(78.71626, 54.271303)"><g/></g></g><g fill="#ffffff" fill-opacity="1"><g transform="translate(80.594853, 54.271303)"><g><path d="M 3.375 0 L 2.015625 0 L 0.09375 -5.6875 L 1.296875 -5.6875 L 2.671875 -1.453125 L 2.78125 -1.453125 L 4.140625 -5.6875 L 5.296875 -5.6875 Z M 3.375 0 "/></g></g></g><g fill="#ffffff" fill-opacity="1"><g transform="translate(85.993343, 54.271303)"><g><path d="M 1.15625 -4.8125 C 0.957031 -4.8125 0.796875 -4.867188 0.671875 -4.984375 C 0.554688 -5.097656 0.5 -5.25 0.5 -5.4375 C 0.5 -5.625 0.554688 -5.773438 0.671875 -5.890625 C 0.796875 -6.003906 0.957031 -6.0625 1.15625 -6.0625 C 1.28125 -6.0625 1.394531 -6.035156 1.5 -5.984375 C 1.601562 -5.929688 1.679688 -5.859375 1.734375 -5.765625 C 1.796875 -5.671875 1.828125 -5.5625 1.828125 -5.4375 C 1.828125 -5.3125 1.796875 -5.203125 1.734375 -5.109375 C 1.679688 -5.015625 1.601562 -4.941406 1.5 -4.890625 C 1.394531 -4.835938 1.28125 -4.8125 1.15625 -4.8125 Z M 0.625 0 L 0.625 -4.296875 L 1.703125 -4.296875 L 1.703125 0 Z M 0.625 0 "/></g></g></g><g fill="#ffffff" fill-opacity="1"><g transform="translate(88.303649, 54.271303)"><g><path d="M 2.125 0.078125 C 1.78125 0.078125 1.476562 0 1.21875 -0.15625 C 0.957031 -0.320312 0.753906 -0.570312 0.609375 -0.90625 C 0.460938 -1.238281 0.390625 -1.648438 0.390625 -2.140625 C 0.390625 -2.628906 0.460938 -3.039062 0.609375 -3.375 C 0.765625 -3.707031 0.972656 -3.957031 1.234375 -4.125 C 1.503906 -4.289062 1.816406 -4.375 2.171875 -4.375 C 2.441406 -4.375 2.671875 -4.328125 2.859375 -4.234375 C 3.054688 -4.140625 3.222656 -4 3.359375 -3.8125 L 3.453125 -3.828125 L 3.453125 -6.015625 L 4.53125 -6.015625 L 4.53125 0 L 3.453125 0 L 3.453125 -0.5625 L 3.359375 -0.578125 C 3.242188 -0.367188 3.082031 -0.207031 2.875 -0.09375 C 2.664062 0.0195312 2.414062 0.078125 2.125 0.078125 Z M 2.46875 -0.828125 C 2.769531 -0.828125 3.007812 -0.9375 3.1875 -1.15625 C 3.363281 -1.375 3.453125 -1.703125 3.453125 -2.140625 C 3.453125 -2.585938 3.363281 -2.914062 3.1875 -3.125 C 3.007812 -3.34375 2.769531 -3.453125 2.46875 -3.453125 C 2.15625 -3.453125 1.914062 -3.347656 1.75 -3.140625 C 1.582031 -2.929688 1.5 -2.597656 1.5 -2.140625 C 1.5 -1.691406 1.582031 -1.359375 1.75 -1.140625 C 1.914062 -0.929688 2.15625 -0.828125 2.46875 -0.828125 Z M 2.46875 -0.828125 "/></g></g></g><g fill="#ffffff" fill-opacity="1"><g transform="translate(93.445439, 54.271303)"><g><path d="M 4.234375 -1.90625 L 1.484375 -1.90625 C 1.515625 -1.53125 1.617188 -1.253906 1.796875 -1.078125 C 1.984375 -0.910156 2.234375 -0.828125 2.546875 -0.828125 C 2.796875 -0.828125 2.992188 -0.875 3.140625 -0.96875 C 3.296875 -1.0625 3.421875 -1.203125 3.515625 -1.390625 L 3.59375 -1.390625 L 4.3125 -0.9375 C 4.164062 -0.632812 3.953125 -0.390625 3.671875 -0.203125 C 3.390625 -0.015625 3.015625 0.078125 2.546875 0.078125 C 2.097656 0.078125 1.710938 -0.00390625 1.390625 -0.171875 C 1.066406 -0.335938 0.816406 -0.585938 0.640625 -0.921875 C 0.472656 -1.253906 0.390625 -1.660156 0.390625 -2.140625 C 0.390625 -2.628906 0.476562 -3.039062 0.65625 -3.375 C 0.84375 -3.707031 1.09375 -3.957031 1.40625 -4.125 C 1.71875 -4.289062 2.070312 -4.375 2.46875 -4.375 C 3.070312 -4.375 3.535156 -4.210938 3.859375 -3.890625 C 4.179688 -3.566406 4.34375 -3.09375 4.34375 -2.46875 C 4.34375 -2.25 4.335938 -2.078125 4.328125 -1.953125 Z M 3.3125 -2.59375 C 3.300781 -2.925781 3.222656 -3.164062 3.078125 -3.3125 C 2.941406 -3.457031 2.738281 -3.53125 2.46875 -3.53125 C 1.925781 -3.53125 1.601562 -3.21875 1.5 -2.59375 Z M 3.3125 -2.59375 "/></g></g></g><g fill="#ffffff" fill-opacity="1"><g transform="translate(98.108844, 54.271303)"><g><path d="M 2.5 0.078125 C 2.070312 0.078125 1.695312 -0.00390625 1.375 -0.171875 C 1.0625 -0.347656 0.816406 -0.601562 0.640625 -0.9375 C 0.472656 -1.269531 0.390625 -1.671875 0.390625 -2.140625 C 0.390625 -2.617188 0.472656 -3.023438 0.640625 -3.359375 C 0.816406 -3.691406 1.0625 -3.941406 1.375 -4.109375 C 1.695312 -4.285156 2.070312 -4.375 2.5 -4.375 C 2.914062 -4.375 3.28125 -4.285156 3.59375 -4.109375 C 3.914062 -3.941406 4.164062 -3.691406 4.34375 -3.359375 C 4.519531 -3.023438 4.609375 -2.617188 4.609375 -2.140625 C 4.609375 -1.671875 4.519531 -1.269531 4.34375 -0.9375 C 4.164062 -0.601562 3.914062 -0.347656 3.59375 -0.171875 C 3.28125 -0.00390625 2.914062 0.078125 2.5 0.078125 Z M 2.5 -0.828125 C 3.164062 -0.828125 3.5 -1.265625 3.5 -2.140625 C 3.5 -2.597656 3.410156 -2.929688 3.234375 -3.140625 C 3.066406 -3.347656 2.820312 -3.453125 2.5 -3.453125 C 1.832031 -3.453125 1.5 -3.015625 1.5 -2.140625 C 1.5 -1.265625 1.832031 -0.828125 2.5 -0.828125 Z M 2.5 -0.828125 "/></g></g></g><g fill="#ffffff" fill-opacity="1"><g transform="translate(103.095058, 54.271303)"><g/></g></g><g fill="#ffffff" fill-opacity="1"><g transform="translate(104.973651, 54.271303)"><g><path d="M 1.859375 -2.5 L 1.859375 -0.9375 L 4.578125 -0.9375 L 4.578125 0 L 0.734375 0 L 0.734375 -5.6875 L 4.515625 -5.6875 L 4.515625 -4.75 L 1.859375 -4.75 L 1.859375 -3.421875 L 4.1875 -3.421875 L 4.1875 -2.5 Z M 1.859375 -2.5 "/></g></g></g><g fill="#ffffff" fill-opacity="1"><g transform="translate(109.862641, 54.271303)"><g><path d="M 2.125 0.078125 C 1.78125 0.078125 1.476562 0 1.21875 -0.15625 C 0.957031 -0.320312 0.753906 -0.570312 0.609375 -0.90625 C 0.460938 -1.238281 0.390625 -1.648438 0.390625 -2.140625 C 0.390625 -2.628906 0.460938 -3.039062 0.609375 -3.375 C 0.765625 -3.707031 0.972656 -3.957031 1.234375 -4.125 C 1.503906 -4.289062 1.816406 -4.375 2.171875 -4.375 C 2.441406 -4.375 2.671875 -4.328125 2.859375 -4.234375 C 3.054688 -4.140625 3.222656 -4 3.359375 -3.8125 L 3.453125 -3.828125 L 3.453125 -6.015625 L 4.53125 -6.015625 L 4.53125 0 L 3.453125 0 L 3.453125 -0.5625 L 3.359375 -0.578125 C 3.242188 -0.367188 3.082031 -0.207031 2.875 -0.09375 C 2.664062 0.0195312 2.414062 0.078125 2.125 0.078125 Z M 2.46875 -0.828125 C 2.769531 -0.828125 3.007812 -0.9375 3.1875 -1.15625 C 3.363281 -1.375 3.453125 -1.703125 3.453125 -2.140625 C 3.453125 -2.585938 3.363281 -2.914062 3.1875 -3.125 C 3.007812 -3.34375 2.769531 -3.453125 2.46875 -3.453125 C 2.15625 -3.453125 1.914062 -3.347656 1.75 -3.140625 C 1.582031 -2.929688 1.5 -2.597656 1.5 -2.140625 C 1.5 -1.691406 1.582031 -1.359375 1.75 -1.140625 C 1.914062 -0.929688 2.15625 -0.828125 2.46875 -0.828125 Z M 2.46875 -0.828125 "/></g></g></g><g fill="#ffffff" fill-opacity="1"><g transform="translate(115.004431, 54.271303)"><g><path d="M 1.15625 -4.8125 C 0.957031 -4.8125 0.796875 -4.867188 0.671875 -4.984375 C 0.554688 -5.097656 0.5 -5.25 0.5 -5.4375 C 0.5 -5.625 0.554688 -5.773438 0.671875 -5.890625 C 0.796875 -6.003906 0.957031 -6.0625 1.15625 -6.0625 C 1.28125 -6.0625 1.394531 -6.035156 1.5 -5.984375 C 1.601562 -5.929688 1.679688 -5.859375 1.734375 -5.765625 C 1.796875 -5.671875 1.828125 -5.5625 1.828125 -5.4375 C 1.828125 -5.3125 1.796875 -5.203125 1.734375 -5.109375 C 1.679688 -5.015625 1.601562 -4.941406 1.5 -4.890625 C 1.394531 -4.835938 1.28125 -4.8125 1.15625 -4.8125 Z M 0.625 0 L 0.625 -4.296875 L 1.703125 -4.296875 L 1.703125 0 Z M 0.625 0 "/></g></g></g><g fill="#ffffff" fill-opacity="1"><g transform="translate(117.314736, 54.271303)"><g><path d="M 2.96875 -1.015625 L 3.234375 -0.21875 C 3.117188 -0.125 2.972656 -0.0507812 2.796875 0 C 2.617188 0.0507812 2.421875 0.078125 2.203125 0.078125 C 1.734375 0.078125 1.378906 -0.046875 1.140625 -0.296875 C 0.898438 -0.546875 0.78125 -0.914062 0.78125 -1.40625 L 0.78125 -3.4375 L 0.125 -3.4375 L 0.125 -4.296875 L 0.78125 -4.296875 L 0.78125 -5.125 L 1.859375 -5.3125 L 1.859375 -4.296875 L 3.078125 -4.296875 L 3.078125 -3.4375 L 1.859375 -3.4375 L 1.859375 -1.484375 C 1.859375 -1.265625 1.898438 -1.109375 1.984375 -1.015625 C 2.078125 -0.921875 2.207031 -0.875 2.375 -0.875 C 2.570312 -0.875 2.738281 -0.921875 2.875 -1.015625 Z M 2.96875 -1.015625 "/></g></g></g><g fill="#ffffff" fill-opacity="1"><g transform="translate(120.647966, 54.271303)"><g><path d="M 2.5 0.078125 C 2.070312 0.078125 1.695312 -0.00390625 1.375 -0.171875 C 1.0625 -0.347656 0.816406 -0.601562 0.640625 -0.9375 C 0.472656 -1.269531 0.390625 -1.671875 0.390625 -2.140625 C 0.390625 -2.617188 0.472656 -3.023438 0.640625 -3.359375 C 0.816406 -3.691406 1.0625 -3.941406 1.375 -4.109375 C 1.695312 -4.285156 2.070312 -4.375 2.5 -4.375 C 2.914062 -4.375 3.28125 -4.285156 3.59375 -4.109375 C 3.914062 -3.941406 4.164062 -3.691406 4.34375 -3.359375 C 4.519531 -3.023438 4.609375 -2.617188 4.609375 -2.140625 C 4.609375 -1.671875 4.519531 -1.269531 4.34375 -0.9375 C 4.164062 -0.601562 3.914062 -0.347656 3.59375 -0.171875 C 3.28125 -0.00390625 2.914062 0.078125 2.5 0.078125 Z M 2.5 -0.828125 C 3.164062 -0.828125 3.5 -1.265625 3.5 -2.140625 C 3.5 -2.597656 3.410156 -2.929688 3.234375 -3.140625 C 3.066406 -3.347656 2.820312 -3.453125 2.5 -3.453125 C 1.832031 -3.453125 1.5 -3.015625 1.5 -2.140625 C 1.5 -1.265625 1.832031 -0.828125 2.5 -0.828125 Z M 2.5 -0.828125 "/></g></g></g><g fill="#ffffff" fill-opacity="1"><g transform="translate(125.63418, 54.271303)"><g><path d="M 0.625 0 L 0.625 -4.296875 L 1.671875 -4.296875 L 1.671875 -3.65625 L 1.75 -3.640625 C 1.851562 -3.878906 1.988281 -4.050781 2.15625 -4.15625 C 2.320312 -4.269531 2.523438 -4.328125 2.765625 -4.328125 C 3.015625 -4.328125 3.203125 -4.285156 3.328125 -4.203125 L 3.140625 -3.28125 L 3.0625 -3.265625 C 2.988281 -3.285156 2.921875 -3.300781 2.859375 -3.3125 C 2.796875 -3.332031 2.71875 -3.34375 2.625 -3.34375 C 2.320312 -3.34375 2.09375 -3.234375 1.9375 -3.015625 C 1.78125 -2.804688 1.703125 -2.46875 1.703125 -2 L 1.703125 0 Z M 0.625 0 "/></g></g></g></svg>